<?xml version="1.0" encoding="utf-8"?>
<svg xmlns="http://www.w3.org/2000/svg" viewBox="0 0 480 480">
  <path opacity="1.000000" d="M 114.282 333.679 C 119.845 341.633 124.773 350.134 131.084 357.443 C 153.782 383.729 182.393 400.024 216.67 406.141 C 220.025 406.74 223.432 407.049 227.178 407.54 C 227.178 412.502 227.178 417.046 227.178 422.476 C 221.844 421.819 216.848 421.453 211.948 420.561 C 173.149 413.501 141.823 393.812 116.676 363.82 C 96.069 339.243 83.922 310.814 78.75 279.323 C 77.701 272.934 77.337 266.419 76.943 259.944 C 76.78 257.266 75.935 255.521 73.69 253.925 C 54.178 240.064 45.59 220.485 44.385 197.147 C 44.259 194.718 44.327 192.268 44.48 189.839 C 44.621 187.614 43.815 186.077 42.13 184.584 C 31.135 174.846 26.12 162.345 25.941 147.872 C 25.892 143.973 24.753 141.131 22.188 138.126 C 15.165 129.899 10.734 120.468 11.018 109.284 C 11.247 100.303 15.539 93.826 23.262 89.665 C 31.113 85.435 39.589 84.988 48.142 86.822 C 52.841 87.829 56.768 87.711 61.231 84.981 C 74.017 77.161 87.719 74.974 101.935 81.214 C 104.559 82.365 106.534 81.796 108.725 80.418 C 120.775 72.841 133.726 67.906 148.085 67.112 C 159.63 66.473 170.857 67.912 181.172 73.294 C 184.544 75.054 187.024 74.773 190.211 73.383 C 214.13 62.949 239.203 57.185 265.268 57.193 C 309.306 57.208 348.915 71.064 384.51 96.911 C 416.432 120.089 439.449 150.093 454.301 186.506 C 455.111 188.494 455.638 190.597 456.633 193.696 C 451.564 193.718 447.395 193.772 443.228 193.741 C 440.612 193.721 440.155 191.473 439.275 189.691 C 435.773 182.601 432.606 175.322 428.711 168.455 C 411.366 137.873 387.024 114.26 356.594 96.796 C 335.555 84.721 313.005 77.015 288.996 73.812 C 258.337 69.721 228.701 74.068 200.104 85.645 C 175.801 95.483 154.836 110.263 137.229 129.606 C 114.397 154.689 99.656 183.961 94.238 217.522 C 91.141 236.708 91.388 255.993 96.809 274.868 C 103.374 297.724 116.703 316.005 135.534 330.293 C 154.099 344.379 175.165 351.86 198.456 351.335 C 231.369 350.594 256.754 336.428 271.557 306.307 C 281.947 285.165 282.536 263.236 273.044 241.492 C 261.655 215.401 233.086 200.524 206.645 207.753 C 188.07 212.831 175.16 224.489 170.358 243.564 C 166.715 258.034 168.805 271.815 178.278 283.839 C 190.314 299.118 211.912 302.243 226.648 291.003 C 235.096 284.56 239.538 271.697 236.684 261.59 C 236.139 259.66 235.343 257.721 234.27 256.036 C 231.228 251.26 226.932 248.596 221.069 248.796 C 215.258 248.994 211.844 252.511 209.322 257.198 C 208.372 258.964 207.776 260.921 206.921 263.031 C 202.327 263.031 197.793 263.031 193.295 263.031 C 192.411 251.824 200.482 240.221 211.319 235.606 C 226.299 229.225 245.096 238.055 250.942 255.892 C 254.876 267.894 253.185 279.503 246.952 290.488 C 232.733 315.55 200.403 317.465 181.261 305.865 C 165.515 296.322 156.398 282.3 153.829 264.11 C 149.857 235.984 158.629 211.487 176.312 190.09 C 191.798 171.354 211.717 159.161 235.668 154.271 C 265.481 148.185 292.964 154.172 317.745 171.716 C 324.332 176.38 330.154 182.137 336.215 187.519 C 337.803 188.929 338.97 190.813 341.102 193.425 C 334.113 194.287 328.304 194.03 322.542 193.695 C 321.171 193.616 319.793 192.13 318.581 191.099 C 298.34 173.878 275.176 164.937 248.436 167.454 C 226.689 169.5 207.833 178.264 192.106 194.701 C 191.488 195.662 191.316 196.096 191.144 196.529 C 191.813 196.338 192.482 196.147 193.151 195.956 C 198.436 194.58 203.647 192.666 209.02 191.916 C 238.011 187.868 261.548 198.024 278.612 221.364 C 298.448 248.495 299.78 278.391 286.819 308.583 C 272.427 342.105 246.124 361.606 210.031 365.611 C 175.224 369.472 144.233 359.134 118.38 334.873 C 117.644 334.182 116.826 333.579 115.419 332.558 C 114.487 332.214 114.182 332.248 113.877 332.281 C 114.011 332.747 114.147 333.213 114.282 333.679 M 145.685 101.523 C 153.034 96.005 160.382 90.486 167.837 84.887 C 160.933 81.929 149.743 81.066 141.398 82.851 C 122.175 86.961 106.772 97.265 94.306 112.193 C 83.543 125.081 75.557 139.673 69.341 155.16 C 63.44 169.861 58.341 184.837 59.648 201.154 C 60.637 213.506 64.997 224.364 73.17 233.668 C 74.02 234.636 75.174 235.337 76.571 236.474 C 77.832 221.645 80.333 207.755 84.318 194.125 C 95.116 157.206 115.672 126.747 145.685 101.523 M 76.266 94.065 C 72.156 96.209 67.499 97.702 64.033 100.612 C 50.016 112.383 42.414 127.861 40.698 145.908 C 39.883 154.484 42.151 162.749 48.857 170.255 C 57.051 141.31 70.692 116.091 90.62 94.212 C 85.752 91.178 81.454 92.915 76.266 94.065 M 29.44 123.438 C 31.678 124.742 31.57 122.547 32.112 121.553 C 35.212 115.873 38.258 110.163 41.278 104.439 C 41.795 103.458 42.094 102.363 42.874 100.329 C 38.656 100.82 35.252 100.947 31.978 101.665 C 27.655 102.614 25.991 104.955 25.664 109.373 C 25.307 114.2 26.741 118.562 29.44 123.438 M 113.202 330.308 C 112.988 330.295 112.774 330.283 112.559 330.271 C 112.659 330.396 112.76 330.522 113.202 330.308 Z" style="fill: rgb(255, 255, 255); stroke: rgb(0, 0, 0); stroke-dashoffset: 18px; stroke-miterlimit: 2.6; stroke-linecap: square; stroke-linejoin: round; stroke-width: 12px;"/>
  <path opacity="1.000000" d="M 415.799 283.161 C 426.934 283.161 437.46 283.161 448.827 283.161 C 448.854 270.745 448.89 258.851 448.903 246.958 C 448.916 235.02 448.905 223.081 448.905 210.719 C 455.884 210.719 462.238 210.719 468.995 210.719 C 468.995 266.368 468.995 321.721 468.995 377.529 C 462.533 377.529 456.159 377.529 448.946 377.529 C 448.946 352.764 448.946 328.135 448.946 303.18 C 418.36 303.18 388.606 303.18 358.235 303.18 C 357.058 342.055 342.678 374.339 311.675 398.35 C 291.758 413.773 268.891 420.873 243.689 422.807 C 242.645 417.19 242.932 412.042 243.36 406.471 C 247.573 405.85 251.591 405.443 255.53 404.65 C 297.674 396.168 327.122 366.616 335.326 324.274 C 336.593 317.739 337.167 310.978 337.214 304.315 C 337.415 275.676 337.3 247.034 337.301 218.393 C 337.301 216.001 337.301 213.608 337.301 210.759 C 344.37 210.759 350.749 210.759 357.95 210.759 C 358.328 234.619 357.892 258.479 358.192 283.16 C 377.546 283.16 396.368 283.16 415.799 283.161 Z" style="fill: rgb(254, 254, 254); stroke-dashoffset: -59px; stroke-miterlimit: 17.71; stroke: rgb(0, 0, 0); stroke-width: 14px;"/>
  <path opacity="1.000000" stroke="none" d="M 145.353 101.798 C 115.672 126.747 95.116 157.206 84.318 194.125 C 80.333 207.755 77.832 221.645 76.571 236.474 C 75.174 235.337 74.02 234.636 73.17 233.668 C 64.997 224.364 60.637 213.506 59.648 201.154 C 58.341 184.837 63.44 169.861 69.341 155.16 C 75.557 139.673 83.543 125.081 94.306 112.193 C 106.772 97.265 122.175 86.961 141.398 82.851 C 149.743 81.066 160.933 81.929 167.837 84.887 C 160.382 90.486 153.034 96.005 145.353 101.798 Z" style="stroke-width: 0.609; fill: none;"/>
  <path opacity="1.000000" stroke="none" d="M 76.718 93.899 C 81.454 92.915 85.752 91.178 90.62 94.212 C 70.692 116.091 57.051 141.31 48.857 170.255 C 42.151 162.749 39.883 154.484 40.698 145.908 C 42.414 127.861 50.016 112.383 64.033 100.612 C 67.499 97.702 72.156 96.209 76.718 93.899 Z" style="stroke-width: 0.609; fill: none;"/>
  <path opacity="1.000000" stroke="none" d="M 29.228 123.079 C 26.741 118.562 25.307 114.2 25.664 109.373 C 25.991 104.955 27.655 102.614 31.978 101.665 C 35.252 100.947 38.656 100.82 42.874 100.329 C 42.094 102.363 41.795 103.458 41.278 104.439 C 38.258 110.163 35.212 115.873 32.112 121.553 C 31.57 122.547 31.678 124.742 29.228 123.079 Z" style="stroke-width: 0.609; fill: none;"/>
  <path fill="#FFFEFE" opacity="1.000000" stroke="none" d="M 192.924 195.698 C 192.482 196.147 191.813 196.338 191.144 196.529 C 191.316 196.096 191.488 195.662 191.952 195.076 C 192.395 195.095 192.547 195.267 192.924 195.698 Z" style="stroke-width: 0.609;"/>
  <path fill="#FFFEFE" opacity="1.000000" stroke="none" d="M 113.031 330.477 C 112.76 330.522 112.659 330.396 112.559 330.271 C 112.774 330.283 112.988 330.295 113.031 330.477 Z" style="stroke-width: 0.609;"/>
  <path fill="#FFFEFE" opacity="1.000000" stroke="none" d="M 114.533 333.433 C 114.147 333.213 114.011 332.747 113.877 332.281 C 114.182 332.248 114.487 332.214 115.028 332.427 C 115.103 332.845 114.943 333.016 114.533 333.433 Z" style="stroke-width: 0.609;"/>
</svg>