<?xml version="1.0" encoding="utf-8"?>
<svg xmlns="http://www.w3.org/2000/svg" viewBox="0 0 480 480">
  <g id="Layer_1" style="" transform="matrix(0.609424, 0, 0, 0.609424, -4.306424, 89.993034)">
    <path fill="#70BDB9" opacity="1.000000" stroke="none" d="M 194.591 399.863 C 203.719 412.914 211.806 426.864 222.161 438.856 C 259.407 481.99 306.354 508.728 362.599 518.765 C 368.104 519.748 373.695 520.255 379.841 521.061 C 379.841 529.203 379.841 536.659 379.841 545.569 C 371.088 544.491 362.891 543.89 354.85 542.427 C 291.186 530.842 239.782 498.534 198.52 449.321 C 164.706 408.993 144.773 362.343 136.286 310.67 C 134.565 300.187 133.968 289.496 133.322 278.872 C 133.054 274.477 131.667 271.613 127.983 268.995 C 95.966 246.25 81.874 214.123 79.897 175.829 C 79.691 171.843 79.802 167.823 80.054 163.837 C 80.285 160.185 78.962 157.663 76.197 155.214 C 58.156 139.234 49.927 118.722 49.633 94.973 C 49.553 88.576 47.684 83.912 43.475 78.981 C 31.951 65.482 24.679 50.006 25.146 31.654 C 25.522 16.918 32.565 6.29 45.237 -0.539 C 58.12 -7.48 72.027 -8.213 86.063 -5.204 C 93.773 -3.551 100.216 -3.744 107.54 -8.224 C 128.521 -21.056 151.004 -24.644 174.331 -14.406 C 178.636 -12.517 181.878 -13.451 185.472 -15.711 C 205.245 -28.145 226.496 -36.243 250.058 -37.546 C 269.002 -38.594 287.424 -36.233 304.35 -27.401 C 309.883 -24.514 313.953 -24.975 319.183 -27.256 C 358.431 -44.377 399.573 -53.835 442.342 -53.821 C 514.604 -53.797 579.598 -31.061 638.006 11.351 C 690.386 49.384 728.156 98.617 752.525 158.367 C 753.855 161.629 754.719 165.081 756.352 170.165 C 748.034 170.201 741.194 170.291 734.356 170.239 C 730.063 170.206 729.313 166.517 727.869 163.593 C 722.124 151.959 716.926 140.015 710.535 128.747 C 682.074 78.566 642.131 39.819 592.199 11.163 C 557.676 -8.651 520.674 -21.295 481.278 -26.552 C 430.969 -33.265 382.34 -26.132 335.415 -7.135 C 295.537 9.008 261.135 33.261 232.244 65.001 C 194.78 106.159 170.591 154.191 161.701 209.262 C 156.619 240.744 157.024 272.389 165.92 303.36 C 176.692 340.865 198.563 370.862 229.464 394.307 C 259.927 417.42 294.493 429.696 332.712 428.835 C 386.718 427.619 428.372 404.373 452.662 354.948 C 469.711 320.256 470.677 284.274 455.103 248.593 C 436.415 205.781 389.535 181.37 346.149 193.231 C 315.669 201.564 294.485 220.694 286.605 251.993 C 280.628 275.737 284.058 298.35 299.601 318.081 C 319.351 343.152 354.791 348.279 378.972 329.836 C 392.834 319.264 400.123 298.156 395.44 281.572 C 394.546 278.405 393.239 275.223 391.478 272.459 C 386.486 264.622 379.438 260.25 369.817 260.578 C 360.282 260.903 354.679 266.675 350.541 274.365 C 348.982 277.263 348.004 280.474 346.601 283.936 C 339.063 283.936 331.623 283.936 324.243 283.936 C 322.792 265.548 336.036 246.508 353.818 238.935 C 378.399 228.465 409.243 242.954 418.836 272.223 C 425.29 291.917 422.516 310.965 412.289 328.99 C 388.957 370.115 335.906 373.257 304.496 354.222 C 278.658 338.564 263.698 315.555 259.483 285.708 C 252.966 239.556 267.359 199.358 296.376 164.249 C 321.786 133.504 354.471 113.497 393.772 105.474 C 442.692 95.487 487.789 105.31 528.452 134.098 C 539.26 141.751 548.814 151.199 558.759 160.03 C 561.365 162.344 563.28 165.435 566.778 169.72 C 555.31 171.135 545.778 170.713 536.323 170.164 C 534.074 170.034 531.812 167.596 529.824 165.904 C 496.61 137.646 458.6 122.975 414.724 127.105 C 379.038 130.463 348.098 144.843 322.292 171.814 C 321.278 173.392 320.996 174.103 320.714 174.814 C 321.811 174.5 322.908 174.188 324.006 173.874 C 332.679 171.616 341.229 168.476 350.046 167.245 C 397.617 160.603 436.239 177.267 464.239 215.565 C 496.788 260.085 498.974 309.141 477.705 358.682 C 454.09 413.688 410.93 445.688 351.705 452.259 C 294.591 458.595 243.737 441.632 201.316 401.822 C 200.108 400.688 198.765 399.699 196.457 398.023 C 194.928 397.459 194.427 397.514 193.926 397.569 C 194.147 398.334 194.369 399.098 194.591 399.863 M 246.12 18.92 C 258.178 9.865 270.236 0.809 282.469 -8.378 C 271.141 -13.233 252.778 -14.648 239.085 -11.72 C 207.542 -4.975 182.267 11.932 161.812 36.427 C 144.152 57.576 131.047 81.52 120.847 106.932 C 111.164 131.055 102.798 155.628 104.943 182.404 C 106.566 202.672 113.72 220.489 127.13 235.755 C 128.525 237.344 130.419 238.494 132.712 240.359 C 134.781 216.026 138.884 193.234 145.424 170.87 C 163.142 110.289 196.872 60.309 246.12 18.92 M 132.21 6.681 C 125.467 10.2 117.825 12.649 112.138 17.425 C 89.138 36.739 76.664 62.137 73.848 91.751 C 72.51 105.823 76.232 119.384 87.235 131.701 C 100.681 84.206 123.065 42.824 155.764 6.923 C 147.777 1.944 140.723 4.795 132.21 6.681 M 55.375 54.879 C 59.047 57.02 58.869 53.418 59.759 51.787 C 64.845 42.466 69.844 33.096 74.799 23.704 C 75.647 22.095 76.138 20.297 77.418 16.96 C 70.496 17.766 64.911 17.974 59.539 19.153 C 52.446 20.709 49.715 24.551 49.179 31.8 C 48.593 39.721 50.946 46.878 55.375 54.879 M 192.819 394.331 C 192.467 394.31 192.116 394.29 191.764 394.27 C 191.928 394.476 192.093 394.682 192.819 394.331 Z" style="stroke-width: 1px;"/>
    <path fill="#F18E40" opacity="1.000000" stroke="none" d="M 689.348 316.968 C 707.619 316.968 724.891 316.968 743.544 316.968 C 743.588 296.594 743.647 277.078 743.668 257.562 C 743.689 237.973 743.672 218.383 743.672 198.099 C 755.124 198.099 765.549 198.099 776.637 198.099 C 776.637 289.413 776.637 380.241 776.637 471.815 C 766.034 471.815 755.574 471.815 743.738 471.815 C 743.738 431.179 743.738 390.765 743.738 349.817 C 693.551 349.817 644.728 349.817 594.892 349.817 C 592.96 413.607 569.364 466.582 518.491 505.98 C 485.81 531.289 448.287 542.938 406.934 546.112 C 405.221 536.895 405.692 528.448 406.394 519.306 C 413.308 518.288 419.9 517.619 426.364 516.318 C 495.518 502.401 543.838 453.908 557.301 384.43 C 559.379 373.707 560.321 362.612 560.398 351.68 C 560.729 304.686 560.54 257.688 560.541 210.691 C 560.541 206.765 560.541 202.839 560.541 198.164 C 572.141 198.164 582.608 198.164 594.424 198.164 C 595.044 237.315 594.329 276.468 594.821 316.967 C 626.579 316.967 657.464 316.967 689.348 316.968 Z" style="stroke-width: 1px;"/>
    <path fill="#FCFEFD" opacity="1.000000" stroke="none" d="M 245.575 19.371 C 196.872 60.309 163.142 110.289 145.424 170.87 C 138.884 193.234 134.781 216.026 132.712 240.359 C 130.419 238.494 128.525 237.344 127.13 235.755 C 113.72 220.489 106.566 202.672 104.943 182.404 C 102.798 155.628 111.164 131.055 120.847 106.932 C 131.047 81.52 144.152 57.576 161.812 36.427 C 182.267 11.932 207.542 -4.975 239.085 -11.72 C 252.778 -14.648 271.141 -13.233 282.469 -8.378 C 270.236 0.809 258.178 9.865 245.575 19.371 Z" style="stroke-width: 1px;"/>
    <path fill="#FAFDFD" opacity="1.000000" stroke="none" d="M 132.953 6.41 C 140.723 4.795 147.777 1.944 155.764 6.923 C 123.065 42.824 100.681 84.206 87.235 131.701 C 76.232 119.384 72.51 105.823 73.848 91.751 C 76.664 62.137 89.138 36.739 112.138 17.425 C 117.825 12.649 125.467 10.2 132.953 6.41 Z" style="stroke-width: 1px;"/>
    <path fill="#F5FBFA" opacity="1.000000" stroke="none" d="M 55.026 54.291 C 50.946 46.878 48.593 39.721 49.179 31.8 C 49.715 24.551 52.446 20.709 59.539 19.153 C 64.911 17.974 70.496 17.766 77.418 16.96 C 76.138 20.297 75.647 22.095 74.799 23.704 C 69.844 33.096 64.845 42.466 59.759 51.787 C 58.869 53.418 59.047 57.02 55.026 54.291 Z" style="stroke-width: 1px;"/>
    <path fill="#FFFEFE" opacity="1.000000" stroke="none" d="M 323.634 173.45 C 322.908 174.188 321.811 174.5 320.714 174.814 C 320.996 174.103 321.278 173.392 322.039 172.43 C 322.766 172.461 323.015 172.743 323.634 173.45 Z" style="stroke-width: 1px;"/>
    <path fill="#FFFEFE" opacity="1.000000" stroke="none" d="M 192.538 394.609 C 192.093 394.682 191.928 394.476 191.764 394.27 C 192.116 394.29 192.467 394.31 192.538 394.609 Z" style="stroke-width: 1px;"/>
    <path fill="#FFFEFE" opacity="1.000000" stroke="none" d="M 195.002 399.459 C 194.369 399.098 194.147 398.334 193.926 397.569 C 194.427 397.514 194.928 397.459 195.815 397.808 C 195.938 398.494 195.676 398.775 195.002 399.459 Z" style="stroke-width: 1px;"/>
  </g>
</svg>