<svg version="1.1" id="Layer_1" xmlns="http://www.w3.org/2000/svg" xmlns:xlink="http://www.w3.org/1999/xlink" x="0px" y="0px"
	 width="100%" viewBox="0 0 2816 1536" enable-background="new 0 0 2816 1536" xml:space="preserve">
<path fill="#FFFEFE" opacity="1.000000" stroke="none" 
	d="
M1860.000000,1538.000000 
	C1240.071045,1538.000000 621.141968,1538.000000 2.106480,1538.000000 
	C2.106480,1026.129761 2.106480,514.259399 2.106480,2.194554 
	C940.429260,2.194554 1878.858521,2.194554 2817.644043,2.194554 
	C2817.644043,513.999817 2817.644043,1025.999878 2817.644043,1538.000000 
	C2498.925537,1538.000000 2179.962891,1538.000000 1860.000000,1538.000000 
M1321.915039,685.886841 
	C1321.666748,685.604553 1321.418335,685.322327 1321.676147,683.806763 
	C1346.749756,657.704407 1377.690308,643.324829 1413.376221,639.965942 
	C1457.252075,635.836243 1495.262451,650.507141 1528.475708,678.765503 
	C1530.463989,680.457031 1532.726562,682.895447 1534.975098,683.025757 
	C1544.430542,683.574036 1553.962402,683.996399 1565.430542,682.581604 
	C1561.931763,678.296204 1560.016602,675.205200 1557.411255,672.891663 
	C1547.465820,664.060425 1537.912109,654.612183 1527.103638,646.959839 
	C1486.441528,618.171021 1441.344116,608.348755 1392.424561,618.335205 
	C1353.122681,626.358337 1320.437988,646.365601 1295.027832,677.110718 
	C1266.011597,712.219055 1251.618408,752.417847 1258.135132,798.569885 
	C1262.349731,828.416870 1277.310059,851.425354 1303.148193,867.083618 
	C1334.557861,886.118225 1387.609497,882.975891 1410.941406,841.851562 
	C1421.168091,823.826233 1423.942505,804.778381 1417.487793,785.084290 
	C1407.895142,755.815613 1377.050659,741.326721 1352.469971,751.796021 
	C1334.688110,759.369690 1321.443970,778.409302 1322.894653,796.797729 
	C1330.274902,796.797729 1337.715576,796.797729 1345.253052,796.797729 
	C1346.655884,793.335022 1347.633911,790.124512 1349.192993,787.226868 
	C1353.331299,779.536621 1358.933960,773.764343 1368.468872,773.439209 
	C1378.089600,773.111145 1385.137939,777.483093 1390.129639,785.319946 
	C1391.890625,788.084534 1393.197632,791.266846 1394.091797,794.433594 
	C1398.774902,811.017090 1391.486572,832.125000 1377.624390,842.697754 
	C1353.443237,861.140869 1318.002930,856.013245 1298.253052,830.942261 
	C1282.710083,811.211548 1279.279785,788.598267 1285.257568,764.854736 
	C1293.137573,733.554932 1314.321289,714.425537 1344.801147,706.092468 
	C1388.186890,694.230896 1435.067139,718.642456 1453.754639,761.454529 
	C1469.329346,797.135254 1468.363159,833.117615 1451.313843,867.809143 
	C1427.023804,917.234070 1385.369995,940.480103 1331.364258,941.696716 
	C1293.144897,942.557556 1258.579590,930.281311 1228.115967,907.168335 
	C1197.215454,883.723694 1175.344482,853.726135 1164.571899,816.221008 
	C1155.676270,785.250183 1155.271484,753.604980 1160.353516,722.122986 
	C1169.243286,667.052124 1193.432495,619.020203 1230.895874,577.862610 
	C1259.786865,546.122742 1294.188965,521.869690 1334.067017,505.725891 
	C1380.991943,486.729431 1429.621582,479.595978 1479.930542,486.309540 
	C1519.325806,491.566681 1556.327881,504.210846 1590.851196,524.024109 
	C1640.783569,552.680725 1680.726074,591.427246 1709.187256,641.608215 
	C1715.578125,652.876160 1720.776367,664.820557 1726.521362,676.454712 
	C1727.964966,679.378235 1728.715332,683.067261 1733.008057,683.100159 
	C1739.846558,683.152588 1746.686279,683.062500 1755.004517,683.026306 
	C1753.370850,677.942749 1752.507080,674.490356 1751.176636,671.228210 
	C1726.808594,611.478271 1689.037720,562.245239 1636.658569,524.211914 
	C1578.249878,481.800354 1513.256104,459.064087 1440.994507,459.040192 
	C1398.225220,459.026062 1357.083374,468.483917 1317.834717,485.605499 
	C1312.605591,487.886566 1308.535400,488.347748 1303.001953,485.460419 
	C1286.076416,476.628784 1267.654175,474.267609 1248.709961,475.315521 
	C1225.147949,476.618866 1203.897095,484.716431 1184.124023,497.150879 
	C1180.530273,499.410828 1177.287964,500.344604 1172.983154,498.455322 
	C1149.655884,488.217529 1127.173096,491.805176 1106.192383,504.637573 
	C1098.867798,509.117401 1092.424927,509.310669 1084.714966,507.657623 
	C1070.678833,504.648376 1056.771606,505.381226 1043.889160,512.322876 
	C1031.217163,519.151184 1024.173828,529.779053 1023.798584,544.515320 
	C1023.331238,562.867493 1030.603271,578.343079 1042.127075,591.842529 
	C1046.335815,596.772949 1048.205322,601.437195 1048.284668,607.833984 
	C1048.578979,631.582947 1056.807861,652.094910 1074.849365,668.075317 
	C1077.614380,670.524353 1078.937256,673.046692 1078.706177,676.698242 
	C1078.453735,680.684143 1078.343384,684.704407 1078.549316,688.690125 
	C1080.526489,726.984131 1094.618164,759.111511 1126.634644,781.856628 
	C1130.318726,784.473938 1131.706543,787.337891 1131.973877,791.733215 
	C1132.620239,802.356995 1133.216797,813.048523 1134.938354,823.531250 
	C1143.424683,875.204346 1163.357788,921.853943 1197.171875,962.182800 
	C1238.434082,1011.394897 1289.838379,1043.703003 1353.502441,1055.288574 
	C1361.542847,1056.751709 1369.740112,1057.352539 1378.492920,1058.430298 
	C1378.492920,1049.520630 1378.492920,1042.064209 1378.492920,1033.922363 
	C1372.347534,1033.116577 1366.756592,1032.609375 1361.250610,1031.626709 
	C1305.005859,1021.589417 1258.059082,994.851196 1220.813232,951.717651 
	C1210.458130,939.725708 1202.370850,925.775635 1194.065308,911.916504 
	C1194.327759,911.635986 1194.590210,911.355469 1196.137207,911.503906 
	C1197.417114,912.560425 1198.760132,913.549744 1199.967896,914.683105 
	C1242.388916,954.493103 1293.242676,971.456726 1350.356934,965.120239 
	C1409.581787,958.549622 1452.741943,926.548950 1476.357178,871.543030 
	C1497.625732,822.002747 1495.439819,772.946655 1462.891235,728.426331 
	C1434.891479,690.128052 1396.269287,673.464722 1348.698120,680.106079 
	C1339.881226,681.336975 1331.331055,684.476929 1321.915039,685.886841 
M1687.000000,829.828796 
	C1656.115601,829.828796 1625.231201,829.828796 1593.473145,829.828796 
	C1592.981323,789.329163 1593.696411,750.176208 1593.076294,711.024902 
	C1581.259644,711.024902 1570.793579,711.024902 1559.192749,711.024902 
	C1559.192749,715.699951 1559.192749,719.626221 1559.192749,723.552490 
	C1559.192139,770.549072 1559.380737,817.546936 1559.050049,864.541199 
	C1558.973145,875.473694 1558.030762,886.568298 1555.953125,897.291199 
	C1542.490479,966.769470 1494.170410,1015.261963 1425.015991,1029.179565 
	C1418.551636,1030.480469 1411.960083,1031.149170 1405.045898,1032.167603 
	C1404.344482,1041.309448 1403.873169,1049.756714 1405.586426,1058.973389 
	C1446.939453,1055.799561 1484.462280,1044.150513 1517.142944,1018.841431 
	C1568.016479,979.443237 1591.612061,926.468811 1593.543701,862.678711 
	C1643.379883,862.678711 1692.202881,862.678711 1742.389648,862.678711 
	C1742.389648,903.626343 1742.389648,944.040039 1742.389648,984.676453 
	C1754.225830,984.676453 1764.686401,984.676453 1775.288818,984.676453 
	C1775.288818,893.101990 1775.288818,802.274658 1775.288818,710.960266 
	C1764.201416,710.960266 1753.776001,710.960266 1742.324341,710.960266 
	C1742.324341,731.244385 1742.340698,750.834045 1742.319702,770.423706 
	C1742.298706,789.939453 1742.240234,809.455139 1742.196411,829.829224 
	C1723.542847,829.829224 1706.271362,829.829224 1687.000000,829.828796 
M1500.019165,1286.558472 
	C1500.291260,1289.381470 1500.563354,1292.204468 1500.865356,1295.338501 
	C1510.401855,1295.500488 1518.905151,1296.125732 1527.553467,1294.983765 
	C1527.553467,1265.267822 1528.154541,1236.626343 1527.285645,1208.029663 
	C1526.884766,1194.833252 1521.470337,1182.719727 1510.920776,1173.785034 
	C1491.407593,1157.258545 1457.778320,1158.349487 1439.245728,1176.034668 
	C1436.467651,1178.685791 1433.776001,1181.427246 1431.346558,1183.828247 
	C1406.553833,1156.906860 1379.560547,1156.056763 1350.154175,1174.598755 
	C1349.317383,1171.098999 1348.642456,1168.276367 1347.861816,1165.011353 
	C1339.008545,1165.011353 1330.531616,1165.011353 1322.168091,1165.011353 
	C1319.891113,1175.753052 1320.363770,1287.542358 1322.692017,1294.977295 
	C1331.109619,1294.977295 1339.613647,1294.977295 1348.799561,1294.977295 
	C1348.980103,1291.181152 1349.261353,1287.929077 1349.268799,1284.676636 
	C1349.317261,1263.354126 1349.327515,1242.031738 1349.304932,1220.709229 
	C1349.296265,1212.527954 1350.720947,1204.750610 1355.788086,1198.082031 
	C1363.501587,1187.931152 1376.502319,1184.032715 1389.958374,1187.666870 
	C1401.895752,1190.890747 1408.962402,1199.580688 1410.386719,1213.087769 
	C1410.769775,1216.720093 1410.731567,1220.405762 1410.739746,1224.067261 
	C1410.785645,1244.723389 1410.763428,1265.379761 1410.829712,1286.035645 
	C1410.839111,1288.930542 1411.208740,1291.824463 1411.429810,1294.978516 
	C1420.697754,1294.978516 1429.184448,1294.978516 1438.467773,1294.978516 
	C1438.671387,1291.181152 1438.989868,1287.938354 1438.995972,1284.695190 
	C1439.032837,1265.038574 1438.947998,1245.381592 1439.024536,1225.725342 
	C1439.042603,1221.072876 1439.111206,1216.354492 1439.863892,1211.782959 
	C1442.404419,1196.353394 1455.029297,1186.104248 1470.922363,1186.199951 
	C1486.148560,1186.291626 1496.807861,1195.749756 1499.385864,1211.728516 
	C1499.964966,1215.318848 1499.970947,1219.025879 1499.980713,1222.679810 
	C1500.036011,1243.335693 1500.012085,1263.992065 1500.019165,1286.558472 
M1049.923950,1147.119507 
	C1049.748413,1141.625366 1049.572876,1136.131104 1049.383179,1130.193237 
	C1039.672974,1130.533813 1031.132690,1128.951050 1021.706360,1131.444214 
	C1021.706360,1153.566162 1021.706360,1175.397217 1021.706360,1197.589111 
	C996.547668,1197.589111 972.462280,1197.589111 947.689697,1197.589111 
	C946.478088,1174.878540 948.254089,1152.729004 946.738892,1130.667236 
	C936.971802,1130.667236 928.440552,1130.667236 919.432739,1130.667236 
	C919.432739,1185.591553 919.432739,1239.958984 919.432739,1295.220581 
	C928.964478,1295.315186 937.701538,1296.586792 947.279785,1294.456665 
	C947.279785,1282.118286 947.160034,1270.187622 947.313660,1258.260620 
	C947.465820,1246.444214 946.590759,1234.567749 947.950684,1222.999390 
	C964.126587,1220.818726 1014.363831,1221.581787 1022.167358,1224.306885 
	C1022.167358,1247.430908 1022.167358,1270.930298 1022.167358,1294.201050 
	C1032.963501,1296.283325 1042.255615,1296.086426 1049.923462,1293.649536 
	C1049.923462,1245.594360 1049.923462,1197.343140 1049.923950,1147.119507 
M1821.437256,1280.476685 
	C1834.343628,1267.874146 1839.865723,1252.367065 1839.816650,1234.533203 
	C1839.729736,1202.871094 1839.812012,1171.208618 1839.768433,1139.546265 
	C1839.764526,1136.662109 1839.362427,1133.778442 1839.123779,1130.609619 
	C1829.527100,1130.609619 1820.709717,1130.609619 1810.677856,1130.609619 
	C1810.677856,1134.778076 1810.678345,1138.352661 1810.677612,1141.927368 
	C1810.672729,1166.923950 1810.678589,1191.920532 1810.655884,1216.917114 
	C1810.649170,1224.248657 1810.841797,1231.595581 1810.441406,1238.907837 
	C1809.934692,1248.157227 1807.055786,1256.708496 1799.948364,1263.025757 
	C1785.412964,1275.944946 1759.489136,1274.423584 1746.257812,1260.189209 
	C1739.724976,1253.161255 1737.627075,1244.679688 1737.635132,1235.369629 
	C1737.662354,1204.040649 1737.629395,1172.711548 1737.573853,1141.382568 
	C1737.567505,1137.840088 1737.270874,1134.297974 1737.105835,1130.689209 
	C1727.212402,1130.689209 1718.404053,1130.689209 1709.362183,1130.689209 
	C1709.028564,1132.597778 1708.612427,1133.871582 1708.611206,1135.145874 
	C1708.577637,1169.474243 1707.999146,1203.815796 1708.771973,1238.126831 
	C1709.404053,1266.190063 1724.370361,1286.280029 1749.576416,1293.596069 
	C1774.860229,1300.934937 1799.051514,1298.755737 1821.437256,1280.476685 
M1201.358398,1207.782471 
	C1198.362061,1197.787964 1193.991089,1188.635742 1186.848267,1180.760498 
	C1160.191895,1151.370605 1093.135376,1153.731323 1077.586182,1207.190063 
	C1066.865234,1244.049194 1082.403320,1291.423218 1133.606201,1296.976318 
	C1162.341675,1300.092896 1188.072998,1286.409546 1198.465332,1262.174438 
	C1199.292358,1260.245728 1199.366821,1257.994019 1199.985352,1254.929688 
	C1191.373413,1254.929688 1183.744263,1254.656250 1176.156616,1255.097656 
	C1173.898315,1255.229126 1171.172852,1256.871338 1169.653809,1258.662964 
	C1157.453857,1273.052612 1143.177124,1277.220215 1126.255371,1270.976807 
	C1113.209595,1266.163330 1104.794434,1254.470581 1104.422485,1239.309082 
	C1137.202515,1239.309082 1169.984985,1239.309082 1203.489014,1239.309082 
	C1203.943726,1228.366943 1204.351318,1218.830566 1201.358398,1207.782471 
M1665.156128,1164.196899 
	C1662.248047,1163.993408 1659.339844,1163.789917 1655.206543,1163.500732 
	C1655.206543,1152.545654 1655.206543,1142.083618 1655.206543,1131.175415 
	C1645.168213,1131.175415 1636.408203,1131.175415 1626.433838,1131.175415 
	C1626.433838,1142.266724 1626.433838,1152.736328 1626.433838,1163.566040 
	C1620.402588,1164.054688 1615.541504,1164.448608 1610.114990,1164.888306 
	C1610.114990,1172.374146 1610.114990,1179.462524 1610.114990,1186.803345 
	C1615.713867,1187.302612 1620.559448,1187.734741 1626.494507,1188.264038 
	C1626.494507,1192.380737 1626.494019,1195.964844 1626.494629,1199.548828 
	C1626.497925,1220.845459 1626.352905,1242.143677 1626.555054,1263.438354 
	C1626.699951,1278.686646 1634.226929,1288.607788 1648.613403,1293.010376 
	C1660.903931,1296.771362 1673.443848,1295.870361 1686.281128,1295.263184 
	C1686.281128,1287.133789 1686.281128,1279.714966 1686.281128,1271.313599 
	C1680.875122,1271.313599 1676.288696,1271.356689 1671.703491,1271.305420 
	C1657.697632,1271.148804 1655.247803,1268.818359 1655.188110,1255.136597 
	C1655.104126,1235.836914 1655.125244,1216.536377 1655.182617,1197.236572 
	C1655.191284,1194.356689 1655.642456,1191.478271 1656.002930,1187.265625 
	C1666.334717,1187.265625 1676.099854,1187.265625 1686.304321,1187.265625 
	C1686.304321,1179.037231 1686.304321,1172.211304 1686.304321,1164.198486 
	C1679.551392,1164.198486 1673.322998,1164.198486 1665.156128,1164.196899 
M1235.871948,1164.421753 
	C1229.495361,1163.767578 1229.093506,1167.817383 1229.100220,1172.629272 
	C1229.153564,1211.200684 1229.088989,1249.772217 1229.145752,1288.343506 
	C1229.148926,1290.531738 1229.900391,1292.718872 1230.415527,1295.513672 
	C1239.682739,1295.197632 1248.494263,1296.680054 1257.718994,1294.603516 
	C1257.718994,1279.538696 1257.697266,1265.261597 1257.726440,1250.984497 
	C1257.746826,1241.010010 1257.431274,1231.013428 1257.983032,1221.066406 
	C1259.026367,1202.259155 1268.744141,1192.554932 1287.283691,1190.992188 
	C1290.464722,1190.723999 1293.640015,1190.389526 1297.388550,1190.031128 
	C1297.050659,1180.205688 1298.365723,1171.399048 1296.677979,1162.341553 
	C1280.866211,1161.209106 1269.406006,1168.613525 1258.362793,1178.749634 
	C1257.766968,1173.176880 1257.354370,1169.317261 1256.830444,1164.416260 
	C1250.155151,1164.416260 1243.915771,1164.416260 1235.871948,1164.421753 
M1871.792603,1215.000000 
	C1871.792603,1241.522949 1871.792603,1268.045898 1871.792603,1294.996094 
	C1881.776001,1295.996704 1890.499634,1296.261108 1899.050293,1295.094849 
	C1900.974121,1278.267212 1900.193848,1137.751709 1898.229126,1130.662720 
	C1889.776123,1130.662720 1881.300293,1130.662720 1871.794678,1130.662720 
	C1871.794678,1158.557617 1871.794678,1185.778809 1871.792603,1215.000000 
M1559.059570,1191.025513 
	C1559.131714,1225.560059 1558.883057,1260.099609 1559.288818,1295.190796 
	C1569.450317,1295.532959 1578.253784,1296.378906 1586.893066,1294.705444 
	C1589.129395,1277.142456 1588.209229,1171.418701 1585.842163,1164.786499 
	C1577.299805,1164.786499 1568.747559,1164.786499 1560.451294,1164.786499 
	C1559.896606,1165.898315 1559.361450,1166.478027 1559.350342,1167.067871 
	C1559.211914,1174.390503 1559.149414,1181.714478 1559.059570,1191.025513 
M1559.978149,1119.268555 
	C1558.796143,1121.606323 1557.120728,1123.824829 1556.520996,1126.303467 
	C1554.377563,1135.162720 1558.800415,1143.072021 1567.225952,1146.121948 
	C1576.302490,1149.407715 1585.913452,1145.483398 1589.745605,1136.926636 
	C1593.251831,1129.097778 1590.340698,1120.023438 1582.802246,1115.283325 
	C1575.990356,1111.000122 1569.521362,1111.849731 1559.978149,1119.268555 
z"/>
<path fill="#70BDB9" opacity="1.000000" stroke="none" 
	d="
M1193.243042,912.723938 
	C1202.370850,925.775635 1210.458130,939.725708 1220.813232,951.717651 
	C1258.059082,994.851196 1305.005859,1021.589417 1361.250610,1031.626709 
	C1366.756592,1032.609375 1372.347534,1033.116577 1378.492920,1033.922363 
	C1378.492920,1042.064209 1378.492920,1049.520630 1378.492920,1058.430298 
	C1369.740112,1057.352539 1361.542847,1056.751709 1353.502441,1055.288574 
	C1289.838379,1043.703003 1238.434082,1011.394897 1197.171875,962.182800 
	C1163.357788,921.853943 1143.424683,875.204346 1134.938354,823.531250 
	C1133.216797,813.048523 1132.620239,802.356995 1131.973877,791.733215 
	C1131.706543,787.337891 1130.318726,784.473938 1126.634644,781.856628 
	C1094.618164,759.111511 1080.526489,726.984131 1078.549316,688.690125 
	C1078.343384,684.704407 1078.453735,680.684143 1078.706177,676.698242 
	C1078.937256,673.046692 1077.614380,670.524353 1074.849365,668.075317 
	C1056.807861,652.094910 1048.578979,631.582947 1048.284668,607.833984 
	C1048.205322,601.437195 1046.335815,596.772949 1042.127075,591.842529 
	C1030.603271,578.343079 1023.331238,562.867493 1023.798584,544.515320 
	C1024.173828,529.779053 1031.217163,519.151184 1043.889160,512.322876 
	C1056.771606,505.381226 1070.678833,504.648376 1084.714966,507.657623 
	C1092.424927,509.310669 1098.867798,509.117401 1106.192383,504.637573 
	C1127.173096,491.805176 1149.655884,488.217529 1172.983154,498.455322 
	C1177.287964,500.344604 1180.530273,499.410828 1184.124023,497.150879 
	C1203.897095,484.716431 1225.147949,476.618866 1248.709961,475.315521 
	C1267.654175,474.267609 1286.076416,476.628784 1303.001953,485.460419 
	C1308.535400,488.347748 1312.605591,487.886566 1317.834717,485.605499 
	C1357.083374,468.483917 1398.225220,459.026062 1440.994507,459.040192 
	C1513.256104,459.064087 1578.249878,481.800354 1636.658569,524.211914 
	C1689.037720,562.245239 1726.808594,611.478271 1751.176636,671.228210 
	C1752.507080,674.490356 1753.370850,677.942749 1755.004517,683.026306 
	C1746.686279,683.062500 1739.846558,683.152588 1733.008057,683.100159 
	C1728.715332,683.067261 1727.964966,679.378235 1726.521362,676.454712 
	C1720.776367,664.820557 1715.578125,652.876160 1709.187256,641.608215 
	C1680.726074,591.427246 1640.783569,552.680725 1590.851196,524.024109 
	C1556.327881,504.210846 1519.325806,491.566681 1479.930542,486.309540 
	C1429.621582,479.595978 1380.991943,486.729431 1334.067017,505.725891 
	C1294.188965,521.869690 1259.786865,546.122742 1230.895874,577.862610 
	C1193.432495,619.020203 1169.243286,667.052124 1160.353516,722.122986 
	C1155.271484,753.604980 1155.676270,785.250183 1164.571899,816.221008 
	C1175.344482,853.726135 1197.215454,883.723694 1228.115967,907.168335 
	C1258.579590,930.281311 1293.144897,942.557556 1331.364258,941.696716 
	C1385.369995,940.480103 1427.023804,917.234070 1451.313843,867.809143 
	C1468.363159,833.117615 1469.329346,797.135254 1453.754639,761.454529 
	C1435.067139,718.642456 1388.186890,694.230896 1344.801147,706.092468 
	C1314.321289,714.425537 1293.137573,733.554932 1285.257568,764.854736 
	C1279.279785,788.598267 1282.710083,811.211548 1298.253052,830.942261 
	C1318.002930,856.013245 1353.443237,861.140869 1377.624390,842.697754 
	C1391.486572,832.125000 1398.774902,811.017090 1394.091797,794.433594 
	C1393.197632,791.266846 1391.890625,788.084534 1390.129639,785.319946 
	C1385.137939,777.483093 1378.089600,773.111145 1368.468872,773.439209 
	C1358.933960,773.764343 1353.331299,779.536621 1349.192993,787.226868 
	C1347.633911,790.124512 1346.655884,793.335022 1345.253052,796.797729 
	C1337.715576,796.797729 1330.274902,796.797729 1322.894653,796.797729 
	C1321.443970,778.409302 1334.688110,759.369690 1352.469971,751.796021 
	C1377.050659,741.326721 1407.895142,755.815613 1417.487793,785.084290 
	C1423.942505,804.778381 1421.168091,823.826233 1410.941406,841.851562 
	C1387.609497,882.975891 1334.557861,886.118225 1303.148193,867.083618 
	C1277.310059,851.425354 1262.349731,828.416870 1258.135132,798.569885 
	C1251.618408,752.417847 1266.011597,712.219055 1295.027832,677.110718 
	C1320.437988,646.365601 1353.122681,626.358337 1392.424561,618.335205 
	C1441.344116,608.348755 1486.441528,618.171021 1527.103638,646.959839 
	C1537.912109,654.612183 1547.465820,664.060425 1557.411255,672.891663 
	C1560.016602,675.205200 1561.931763,678.296204 1565.430542,682.581604 
	C1553.962402,683.996399 1544.430542,683.574036 1534.975098,683.025757 
	C1532.726562,682.895447 1530.463989,680.457031 1528.475708,678.765503 
	C1495.262451,650.507141 1457.252075,635.836243 1413.376221,639.965942 
	C1377.690308,643.324829 1346.749756,657.704407 1320.944580,684.674927 
	C1319.930420,686.253723 1319.647949,686.964294 1319.365601,687.674927 
	C1320.463013,687.361877 1321.560303,687.048889 1322.657715,686.735840 
	C1331.331055,684.476929 1339.881226,681.336975 1348.698120,680.106079 
	C1396.269287,673.464722 1434.891479,690.128052 1462.891235,728.426331 
	C1495.439819,772.946655 1497.625732,822.002747 1476.357178,871.543030 
	C1452.741943,926.548950 1409.581787,958.549622 1350.356934,965.120239 
	C1293.242676,971.456726 1242.388916,954.493103 1199.967896,914.683105 
	C1198.760132,913.549744 1197.417114,912.560425 1195.109375,910.884338 
	C1193.580200,910.320068 1193.078979,910.375366 1192.577759,910.430664 
	C1192.799561,911.195068 1193.021240,911.959534 1193.243042,912.723938 
M1244.772461,531.781677 
	C1256.830444,522.725952 1268.888306,513.670227 1281.121216,504.483124 
	C1269.792603,499.628296 1251.430054,498.213257 1237.736816,501.141266 
	C1206.194580,507.885895 1180.919067,524.793518 1160.464478,549.288696 
	C1142.804199,570.437500 1129.699219,594.381409 1119.499023,619.793152 
	C1109.816162,643.916016 1101.450073,668.488892 1103.594849,695.265320 
	C1105.218262,715.533508 1112.372192,733.350647 1125.782349,748.616821 
	C1127.177490,750.204956 1129.071533,751.354919 1131.364014,753.220825 
	C1133.433228,728.887512 1137.535889,706.095032 1144.076538,683.731140 
	C1161.793945,623.150574 1195.524414,573.170715 1244.772461,531.781677 
M1130.862183,519.542480 
	C1124.119019,523.061096 1116.477417,525.510010 1110.790161,530.286072 
	C1087.790283,549.600830 1075.315918,574.997925 1072.500366,604.612122 
	C1071.162598,618.684082 1074.883667,632.245789 1085.887451,644.562195 
	C1099.332886,597.067078 1121.716675,555.685425 1154.416504,519.784729 
	C1146.428955,514.805054 1139.374634,517.655945 1130.862183,519.542480 
M1054.026611,567.740845 
	C1057.698975,569.881592 1057.521362,566.279053 1058.411011,564.648804 
	C1063.497559,555.327332 1068.496338,545.957581 1073.450928,536.565125 
	C1074.299438,534.956360 1074.790039,533.158691 1076.069946,529.821106 
	C1069.148438,530.627747 1063.563110,530.835693 1058.190674,532.014160 
	C1051.098022,533.569946 1048.366943,537.412720 1047.831055,544.661255 
	C1047.245483,552.582214 1049.598511,559.739380 1054.026611,567.740845 
M1191.470825,907.191895 
	C1191.119263,907.171875 1190.767700,907.151855 1190.416138,907.131836 
	C1190.580444,907.337708 1190.744751,907.543640 1191.470825,907.191895 
z"/>
<path fill="#F18E40" opacity="1.000000" stroke="none" 
	d="
M1688.000000,829.828979 
	C1706.271362,829.829224 1723.542847,829.829224 1742.196411,829.829224 
	C1742.240234,809.455139 1742.298706,789.939453 1742.319702,770.423706 
	C1742.340698,750.834045 1742.324341,731.244385 1742.324341,710.960266 
	C1753.776001,710.960266 1764.201416,710.960266 1775.288818,710.960266 
	C1775.288818,802.274658 1775.288818,893.101990 1775.288818,984.676453 
	C1764.686401,984.676453 1754.225830,984.676453 1742.389648,984.676453 
	C1742.389648,944.040039 1742.389648,903.626343 1742.389648,862.678711 
	C1692.202881,862.678711 1643.379883,862.678711 1593.543701,862.678711 
	C1591.612061,926.468811 1568.016479,979.443237 1517.142944,1018.841431 
	C1484.462280,1044.150513 1446.939453,1055.799561 1405.586426,1058.973389 
	C1403.873169,1049.756714 1404.344482,1041.309448 1405.045898,1032.167603 
	C1411.960083,1031.149170 1418.551636,1030.480469 1425.015991,1029.179565 
	C1494.170410,1015.261963 1542.490479,966.769470 1555.953125,897.291199 
	C1558.030762,886.568298 1558.973145,875.473694 1559.050049,864.541199 
	C1559.380737,817.546936 1559.192139,770.549072 1559.192749,723.552490 
	C1559.192749,719.626221 1559.192749,715.699951 1559.192749,711.024902 
	C1570.793579,711.024902 1581.259644,711.024902 1593.076294,711.024902 
	C1593.696411,750.176208 1592.981323,789.329163 1593.473145,829.828796 
	C1625.231201,829.828796 1656.115601,829.828796 1688.000000,829.828979 
z"/>
<path fill="#F09043" opacity="1.000000" stroke="none" 
	d="
M1500.017090,1285.603271 
	C1500.012085,1263.992065 1500.036011,1243.335693 1499.980713,1222.679810 
	C1499.970947,1219.025879 1499.964966,1215.318848 1499.385864,1211.728516 
	C1496.807861,1195.749756 1486.148560,1186.291626 1470.922363,1186.199951 
	C1455.029297,1186.104248 1442.404419,1196.353394 1439.863892,1211.782959 
	C1439.111206,1216.354492 1439.042603,1221.072876 1439.024536,1225.725342 
	C1438.947998,1245.381592 1439.032837,1265.038574 1438.995972,1284.695190 
	C1438.989868,1287.938354 1438.671387,1291.181152 1438.467773,1294.978516 
	C1429.184448,1294.978516 1420.697754,1294.978516 1411.429810,1294.978516 
	C1411.208740,1291.824463 1410.839111,1288.930542 1410.829712,1286.035645 
	C1410.763428,1265.379761 1410.785645,1244.723389 1410.739746,1224.067261 
	C1410.731567,1220.405762 1410.769775,1216.720093 1410.386719,1213.087769 
	C1408.962402,1199.580688 1401.895752,1190.890747 1389.958374,1187.666870 
	C1376.502319,1184.032715 1363.501587,1187.931152 1355.788086,1198.082031 
	C1350.720947,1204.750610 1349.296265,1212.527954 1349.304932,1220.709229 
	C1349.327515,1242.031738 1349.317261,1263.354126 1349.268799,1284.676636 
	C1349.261353,1287.929077 1348.980103,1291.181152 1348.799561,1294.977295 
	C1339.613647,1294.977295 1331.109619,1294.977295 1322.692017,1294.977295 
	C1320.363770,1287.542358 1319.891113,1175.753052 1322.168091,1165.011353 
	C1330.531616,1165.011353 1339.008545,1165.011353 1347.861816,1165.011353 
	C1348.642456,1168.276367 1349.317383,1171.098999 1350.154175,1174.598755 
	C1379.560547,1156.056763 1406.553833,1156.906860 1431.346558,1183.828247 
	C1433.776001,1181.427246 1436.467651,1178.685791 1439.245728,1176.034668 
	C1457.778320,1158.349487 1491.407593,1157.258545 1510.920776,1173.785034 
	C1521.470337,1182.719727 1526.884766,1194.833252 1527.285645,1208.029663 
	C1528.154541,1236.626343 1527.553467,1265.267822 1527.553467,1294.983765 
	C1518.905151,1296.125732 1510.401855,1295.500488 1500.865356,1295.338501 
	C1500.563354,1292.204468 1500.291260,1289.381470 1500.017090,1285.603271 
z"/>
<path fill="#F09144" opacity="1.000000" stroke="none" 
	d="
M1049.923706,1148.105713 
	C1049.923462,1197.343140 1049.923462,1245.594360 1049.923462,1293.649536 
	C1042.255615,1296.086426 1032.963501,1296.283325 1022.167358,1294.201050 
	C1022.167358,1270.930298 1022.167358,1247.430908 1022.167358,1224.306885 
	C1014.363831,1221.581787 964.126587,1220.818726 947.950684,1222.999390 
	C946.590759,1234.567749 947.465820,1246.444214 947.313660,1258.260620 
	C947.160034,1270.187622 947.279785,1282.118286 947.279785,1294.456665 
	C937.701538,1296.586792 928.964478,1295.315186 919.432739,1295.220581 
	C919.432739,1239.958984 919.432739,1185.591553 919.432739,1130.667236 
	C928.440552,1130.667236 936.971802,1130.667236 946.738892,1130.667236 
	C948.254089,1152.729004 946.478088,1174.878540 947.689697,1197.589111 
	C972.462280,1197.589111 996.547668,1197.589111 1021.706360,1197.589111 
	C1021.706360,1175.397217 1021.706360,1153.566162 1021.706360,1131.444214 
	C1031.132690,1128.951050 1039.672974,1130.533813 1049.383179,1130.193237 
	C1049.572876,1136.131104 1049.748413,1141.625366 1049.923706,1148.105713 
z"/>
<path fill="#6EBEBA" opacity="1.000000" stroke="none" 
	d="
M1820.887451,1280.927246 
	C1799.051514,1298.755737 1774.860229,1300.934937 1749.576416,1293.596069 
	C1724.370361,1286.280029 1709.404053,1266.190063 1708.771973,1238.126831 
	C1707.999146,1203.815796 1708.577637,1169.474243 1708.611206,1135.145874 
	C1708.612427,1133.871582 1709.028564,1132.597778 1709.362183,1130.689209 
	C1718.404053,1130.689209 1727.212402,1130.689209 1737.105835,1130.689209 
	C1737.270874,1134.297974 1737.567505,1137.840088 1737.573853,1141.382568 
	C1737.629395,1172.711548 1737.662354,1204.040649 1737.635132,1235.369629 
	C1737.627075,1244.679688 1739.724976,1253.161255 1746.257812,1260.189209 
	C1759.489136,1274.423584 1785.412964,1275.944946 1799.948364,1263.025757 
	C1807.055786,1256.708496 1809.934692,1248.157227 1810.441406,1238.907837 
	C1810.841797,1231.595581 1810.649170,1224.248657 1810.655884,1216.917114 
	C1810.678589,1191.920532 1810.672729,1166.923950 1810.677612,1141.927368 
	C1810.678345,1138.352661 1810.677856,1134.778076 1810.677856,1130.609619 
	C1820.709717,1130.609619 1829.527100,1130.609619 1839.123779,1130.609619 
	C1839.362427,1133.778442 1839.764526,1136.662109 1839.768433,1139.546265 
	C1839.812012,1171.208618 1839.729736,1202.871094 1839.816650,1234.533203 
	C1839.865723,1252.367065 1834.343628,1267.874146 1820.887451,1280.927246 
z"/>
<path fill="#F09144" opacity="1.000000" stroke="none" 
	d="
M1201.548218,1208.591064 
	C1204.351318,1218.830566 1203.943726,1228.366943 1203.489014,1239.309082 
	C1169.984985,1239.309082 1137.202515,1239.309082 1104.422485,1239.309082 
	C1104.794434,1254.470581 1113.209595,1266.163330 1126.255371,1270.976807 
	C1143.177124,1277.220215 1157.453857,1273.052612 1169.653809,1258.662964 
	C1171.172852,1256.871338 1173.898315,1255.229126 1176.156616,1255.097656 
	C1183.744263,1254.656250 1191.373413,1254.929688 1199.985352,1254.929688 
	C1199.366821,1257.994019 1199.292358,1260.245728 1198.465332,1262.174438 
	C1188.072998,1286.409546 1162.341675,1300.092896 1133.606201,1296.976318 
	C1082.403320,1291.423218 1066.865234,1244.049194 1077.586182,1207.190063 
	C1093.135376,1153.731323 1160.191895,1151.370605 1186.848267,1180.760498 
	C1193.991089,1188.635742 1198.362061,1197.787964 1201.548218,1208.591064 
M1125.071411,1216.461548 
	C1133.067627,1216.446289 1141.063843,1216.439819 1149.060059,1216.412964 
	C1157.220093,1216.385620 1165.380127,1216.338135 1173.612183,1216.298950 
	C1172.051270,1195.593994 1158.254150,1184.552002 1137.001099,1185.626953 
	C1118.892090,1186.542847 1104.736328,1199.944580 1105.313477,1216.467773 
	C1111.212524,1216.467773 1117.159668,1216.467773 1125.071411,1216.461548 
z"/>
<path fill="#EF9246" opacity="1.000000" stroke="none" 
	d="
M1666.125244,1164.197754 
	C1673.322998,1164.198486 1679.551392,1164.198486 1686.304321,1164.198486 
	C1686.304321,1172.211304 1686.304321,1179.037231 1686.304321,1187.265625 
	C1676.099854,1187.265625 1666.334717,1187.265625 1656.002930,1187.265625 
	C1655.642456,1191.478271 1655.191284,1194.356689 1655.182617,1197.236572 
	C1655.125244,1216.536377 1655.104126,1235.836914 1655.188110,1255.136597 
	C1655.247803,1268.818359 1657.697632,1271.148804 1671.703491,1271.305420 
	C1676.288696,1271.356689 1680.875122,1271.313599 1686.281128,1271.313599 
	C1686.281128,1279.714966 1686.281128,1287.133789 1686.281128,1295.263184 
	C1673.443848,1295.870361 1660.903931,1296.771362 1648.613403,1293.010376 
	C1634.226929,1288.607788 1626.699951,1278.686646 1626.555054,1263.438354 
	C1626.352905,1242.143677 1626.497925,1220.845459 1626.494629,1199.548828 
	C1626.494019,1195.964844 1626.494507,1192.380737 1626.494507,1188.264038 
	C1620.559448,1187.734741 1615.713867,1187.302612 1610.114990,1186.803345 
	C1610.114990,1179.462524 1610.114990,1172.374146 1610.114990,1164.888306 
	C1615.541504,1164.448608 1620.402588,1164.054688 1626.433838,1163.566040 
	C1626.433838,1152.736328 1626.433838,1142.266724 1626.433838,1131.175415 
	C1636.408203,1131.175415 1645.168213,1131.175415 1655.206543,1131.175415 
	C1655.206543,1142.083618 1655.206543,1152.545654 1655.206543,1163.500732 
	C1659.339844,1163.789917 1662.248047,1163.993408 1666.125244,1164.197754 
z"/>
<path fill="#EF9246" opacity="1.000000" stroke="none" 
	d="
M1236.774170,1164.418945 
	C1243.915771,1164.416260 1250.155151,1164.416260 1256.830444,1164.416260 
	C1257.354370,1169.317261 1257.766968,1173.176880 1258.362793,1178.749634 
	C1269.406006,1168.613525 1280.866211,1161.209106 1296.677979,1162.341553 
	C1298.365723,1171.399048 1297.050659,1180.205688 1297.388550,1190.031128 
	C1293.640015,1190.389526 1290.464722,1190.723999 1287.283691,1190.992188 
	C1268.744141,1192.554932 1259.026367,1202.259155 1257.983032,1221.066406 
	C1257.431274,1231.013428 1257.746826,1241.010010 1257.726440,1250.984497 
	C1257.697266,1265.261597 1257.718994,1279.538696 1257.718994,1294.603516 
	C1248.494263,1296.680054 1239.682739,1295.197632 1230.415527,1295.513672 
	C1229.900391,1292.718872 1229.148926,1290.531738 1229.145752,1288.343506 
	C1229.088989,1249.772217 1229.153564,1211.200684 1229.100220,1172.629272 
	C1229.093506,1167.817383 1229.495361,1163.767578 1236.774170,1164.418945 
z"/>
<path fill="#6EBDBA" opacity="1.000000" stroke="none" 
	d="
M1871.793701,1214.000000 
	C1871.794678,1185.778809 1871.794678,1158.557617 1871.794678,1130.662720 
	C1881.300293,1130.662720 1889.776123,1130.662720 1898.229126,1130.662720 
	C1900.193848,1137.751709 1900.974121,1278.267212 1899.050293,1295.094849 
	C1890.499634,1296.261108 1881.776001,1295.996704 1871.792603,1294.996094 
	C1871.792603,1268.045898 1871.792603,1241.522949 1871.793701,1214.000000 
z"/>
<path fill="#F09145" opacity="1.000000" stroke="none" 
	d="
M1559.063477,1190.031860 
	C1559.149414,1181.714478 1559.211914,1174.390503 1559.350342,1167.067871 
	C1559.361450,1166.478027 1559.896606,1165.898315 1560.451294,1164.786499 
	C1568.747559,1164.786499 1577.299805,1164.786499 1585.842163,1164.786499 
	C1588.209229,1171.418701 1589.129395,1277.142456 1586.893066,1294.705444 
	C1578.253784,1296.378906 1569.450317,1295.532959 1559.288818,1295.190796 
	C1558.883057,1260.099609 1559.131714,1225.560059 1559.063477,1190.031860 
z"/>
<path fill="#ED9246" opacity="1.000000" stroke="none" 
	d="
M1560.495605,1118.706787 
	C1569.521362,1111.849731 1575.990356,1111.000122 1582.802246,1115.283325 
	C1590.340698,1120.023438 1593.251831,1129.097778 1589.745605,1136.926636 
	C1585.913452,1145.483398 1576.302490,1149.407715 1567.225952,1146.121948 
	C1558.800415,1143.072021 1554.377563,1135.162720 1556.520996,1126.303467 
	C1557.120728,1123.824829 1558.796143,1121.606323 1560.495605,1118.706787 
z"/>
<path fill="#FCFEFD" opacity="1.000000" stroke="none" 
	d="
M1244.226685,532.232422 
	C1195.524414,573.170715 1161.793945,623.150574 1144.076538,683.731140 
	C1137.535889,706.095032 1133.433228,728.887512 1131.364014,753.220825 
	C1129.071533,751.354919 1127.177490,750.204956 1125.782349,748.616821 
	C1112.372192,733.350647 1105.218262,715.533508 1103.594849,695.265320 
	C1101.450073,668.488892 1109.816162,643.916016 1119.499023,619.793152 
	C1129.699219,594.381409 1142.804199,570.437500 1160.464478,549.288696 
	C1180.919067,524.793518 1206.194580,507.885895 1237.736816,501.141266 
	C1251.430054,498.213257 1269.792603,499.628296 1281.121216,504.483124 
	C1268.888306,513.670227 1256.830444,522.725952 1244.226685,532.232422 
z"/>
<path fill="#FAFDFD" opacity="1.000000" stroke="none" 
	d="
M1131.605469,519.271362 
	C1139.374634,517.655945 1146.428955,514.805054 1154.416504,519.784729 
	C1121.716675,555.685425 1099.332886,597.067078 1085.887451,644.562195 
	C1074.883667,632.245789 1071.162598,618.684082 1072.500366,604.612122 
	C1075.315918,574.997925 1087.790283,549.600830 1110.790161,530.286072 
	C1116.477417,525.510010 1124.119019,523.061096 1131.605469,519.271362 
z"/>
<path fill="#F5FBFA" opacity="1.000000" stroke="none" 
	d="
M1053.677612,567.152222 
	C1049.598511,559.739380 1047.245483,552.582214 1047.831055,544.661255 
	C1048.366943,537.412720 1051.098022,533.569946 1058.190674,532.014160 
	C1063.563110,530.835693 1069.148438,530.627747 1076.069946,529.821106 
	C1074.790039,533.158691 1074.299438,534.956360 1073.450928,536.565125 
	C1068.496338,545.957581 1063.497559,555.327332 1058.411011,564.648804 
	C1057.521362,566.279053 1057.698975,569.881592 1053.677612,567.152222 
z"/>
<path fill="#FFFEFE" opacity="1.000000" stroke="none" 
	d="
M1322.286377,686.311340 
	C1321.560303,687.048889 1320.463013,687.361877 1319.365601,687.674927 
	C1319.647949,686.964294 1319.930420,686.253723 1320.691406,685.291626 
	C1321.418335,685.322327 1321.666748,685.604553 1322.286377,686.311340 
z"/>
<path fill="#FFFEFE" opacity="1.000000" stroke="none" 
	d="
M1191.189941,907.470703 
	C1190.744751,907.543640 1190.580444,907.337708 1190.416138,907.131836 
	C1190.767700,907.151855 1191.119263,907.171875 1191.189941,907.470703 
z"/>
<path fill="#FFFEFE" opacity="1.000000" stroke="none" 
	d="
M1193.654175,912.320190 
	C1193.021240,911.959534 1192.799561,911.195068 1192.577759,910.430664 
	C1193.078979,910.375366 1193.580200,910.320068 1194.467041,910.669861 
	C1194.590210,911.355469 1194.327759,911.635986 1193.654175,912.320190 
z"/>
<path fill="#FEFCF7" opacity="1.000000" stroke="none" 
	d="
M1124.089111,1216.464600 
	C1117.159668,1216.467773 1111.212524,1216.467773 1105.313477,1216.467773 
	C1104.736328,1199.944580 1118.892090,1186.542847 1137.001099,1185.626953 
	C1158.254150,1184.552002 1172.051270,1195.593994 1173.612183,1216.298950 
	C1165.380127,1216.338135 1157.220093,1216.385620 1149.060059,1216.412964 
	C1141.063843,1216.439819 1133.067627,1216.446289 1124.089111,1216.464600 
z"/>
</svg>